<svg xmlns="http://www.w3.org/2000/svg" width="1080" height="1920" viewBox="0 0 1080 1920">
  <defs>
    <linearGradient id="bg" x1="0" y1="0" x2="1" y2="1"><stop stop-color="#FF8FA3"/><stop offset="1" stop-color="#FFB347"/></linearGradient>
    <filter id="shadow" x="-30%" y="-30%" width="160%" height="160%"><feDropShadow dx="0" dy="28" stdDeviation="35" flood-color="#000" flood-opacity=".25"/></filter>
    <linearGradient id="glass" x1="0" y1="0" x2="0" y2="1"><stop stop-color="#fff" stop-opacity=".24"/><stop offset="1" stop-color="#fff" stop-opacity=".06"/></linearGradient>
  </defs>
  <rect width="1080" height="1920" fill="url(#bg)"/>
  <rect x="45" y="45" width="990" height="1830" rx="56" fill="none" stroke="#fff" stroke-opacity=".24" stroke-width="3"/>
  <g fill="#FFF7D9" opacity=".85"><circle cx="150" cy="260" r="9"/><circle cx="900" cy="330" r="12"/><circle cx="850" cy="620" r="7"/><path d="M240 460 l13 28 29 13-29 13-13 29-13-29-29-13 29-13Z"/><path d="M825 180 l9 20 20 9-20 9-9 20-9-20-20-9 20-9Z"/></g><path d="M-50 1450 Q250 1220 540 1420 T1130 1410 V1920 H-50Z" fill="#F38A9E" opacity=".45"/><path d="M-40 1540 Q240 1340 540 1510 T1120 1500" fill="none" stroke="#FFF0C9" stroke-width="22" opacity=".45"/>
  <g font-family="Inter, PingFang SC, Microsoft YaHei, sans-serif" fill="#fff">
    <rect x="92" y="92" width="250" height="64" rx="32" fill="url(#glass)" stroke="#fff" stroke-opacity=".25"/>
    <text x="217" y="136" text-anchor="middle" font-size="28" font-weight="700" letter-spacing="4">BRAND CREATIVE</text>
    <text x="540" y="270" text-anchor="middle" font-size="88" font-weight="900" letter-spacing="6">七夕心动季</text>
    <text x="540" y="340" text-anchor="middle" font-size="31" font-weight="600" opacity=".9" letter-spacing="3">品牌袋鼠 · 浪漫限定</text>
  </g>
  <g filter="url(#shadow)">
    <g stroke="#6A2945" stroke-width="30" stroke-linecap="round" stroke-linejoin="round">
      <path d="M650 1290 Q865 1285 925 1435 Q835 1392 732 1412" fill="none" stroke-width="58"/>
      <ellipse cx="540" cy="1260" rx="220" ry="310" fill="#FFF0C9"/>
      <ellipse cx="540" cy="820" rx="190" ry="205" fill="#FFF0C9"/>
      <path d="M450 650 Q385 360 455 245 Q535 425 520 650" fill="#FFF0C9"/>
      <path d="M570 650 Q605 365 685 280 Q705 470 635 690" fill="#FFF0C9"/>
      <ellipse cx="475" cy="805" rx="25" ry="32" fill="#6A2945" stroke="none"/>
      <ellipse cx="600" cy="805" rx="25" ry="32" fill="#6A2945" stroke="none"/>
      <path d="M520 860 Q540 885 560 860" fill="none" stroke-width="16"/>
      <path d="M490 930 Q540 978 595 928" fill="none" stroke-width="18"/>
      <ellipse cx="540" cy="1310" rx="120" ry="160" fill="#FFF0C9" opacity=".72" stroke="none"/>
      <path d="M435 1040 Q330 1120 300 1260"/><path d="M645 1045 Q730 1115 760 1220"/><g transform="translate(755 1195)"><path d="M0 65 C35 25 55 0 22 -28 C-8 -52 -34 -23 -33 7 C-65 -16 -92 7 -79 40 C-64 78 -25 91 0 65Z" fill="#F33B65" stroke="none"/><path d="M-5 64 L-35 170" stroke="#2C8B57" stroke-width="14"/></g>
      <path d="M450 1500 Q405 1630 360 1720"/>
      <path d="M625 1500 Q680 1625 735 1715"/>
      <path d="M320 1730 Q390 1700 440 1735"/>
      <path d="M690 1730 Q750 1698 810 1735"/>
    </g></g>
  <g font-family="Inter, PingFang SC, Microsoft YaHei, sans-serif">
    <rect x="120" y="1640" width="840" height="140" rx="42" fill="#6A2945" opacity=".78"/>
    <text x="540" y="1710" text-anchor="middle" fill="#fff" font-size="42" font-weight="800" letter-spacing="4">限时优惠  08.10—08.20</text>
    <text x="540" y="1758" text-anchor="middle" fill="#fff" font-size="22" opacity=".72" letter-spacing="3">预留活动标题 · 优惠信息 · 行动入口</text>
  </g>
  <text x="540" y="1840" text-anchor="middle" fill="#fff" opacity=".68" font-family="Inter, sans-serif" font-size="18" letter-spacing="5">SMART MARKETING IMAGE ASSISTANT</text>
</svg>